HIERARCHY
ROOT Hips
{
 OFFSET 0.000000 0.000000 0.000000
 CHANNELS 6 Xposition Yposition Zposition Yrotation Xrotation Zrotation
 JOINT Chest
 {
  OFFSET 0.000000 9.857222 0.000240
  CHANNELS 3 Yrotation Xrotation Zrotation
  JOINT Chest2
  {
   OFFSET 0.000000 10.876940 -0.000436
   CHANNELS 3 Yrotation Xrotation Zrotation
   JOINT Chest3
   {
    OFFSET 0.000000 9.827798 0.000000
    CHANNELS 3 Yrotation Xrotation Zrotation
    JOINT Chest4
    {
     OFFSET 0.000000 9.827798 0.000000
     CHANNELS 3 Yrotation Xrotation Zrotation
     JOINT Neck
     {
      OFFSET 0.000000 13.831992 0.000000
      CHANNELS 3 Yrotation Xrotation Zrotation
      JOINT Head
      {
       OFFSET 0.000000 9.147643 -0.001036
       CHANNELS 3 Yrotation Xrotation Zrotation
       End Site
       {
        OFFSET 0.000000 17.515799 -0.000541
       }
      }
     }
     JOINT RightCollar
     {
      OFFSET -3.001579 7.717577 0.000000
      CHANNELS 3 Yrotation Xrotation Zrotation
      JOINT RightShoulder
      {
       OFFSET -14.002642 0.000000 0.000000
       CHANNELS 3 Yrotation Xrotation Zrotation
       JOINT RightElbow
       {
        OFFSET -30.053852 0.000000 0.000000
        CHANNELS 3 Yrotation Xrotation Zrotation
        JOINT RightWrist
        {
         OFFSET -24.564923 0.000000 -0.000000
         CHANNELS 3 Yrotation Xrotation Zrotation
         End Site
         {
          OFFSET -18.334355 0.000000 0.000000
         }
        }
       }
      }
     }
     JOINT LeftCollar
     {
      OFFSET 3.001579 7.717577 0.000000
      CHANNELS 3 Yrotation Xrotation Zrotation
      JOINT LeftShoulder
      {
       OFFSET 14.002642 0.000000 0.000000
       CHANNELS 3 Yrotation Xrotation Zrotation
       JOINT LeftElbow
       {
        OFFSET 30.053852 0.000000 0.000000
        CHANNELS 3 Yrotation Xrotation Zrotation
        JOINT LeftWrist
        {
         OFFSET 24.564923 0.000000 -0.000000
         CHANNELS 3 Yrotation Xrotation Zrotation
         End Site
         {
          OFFSET 18.334355 0.000000 0.000000
         }
        }
       }
      }
     }
    }
   }
  }
 }
 JOINT RightHip
 {
  OFFSET -8.003235 -0.001175 -0.000120
  CHANNELS 3 Yrotation Xrotation Zrotation
  JOINT RightKnee
  {
   OFFSET 0.000000 -41.759727 0.000113
   CHANNELS 3 Yrotation Xrotation Zrotation
   JOINT RightAnkle
   {
    OFFSET 0.000000 -40.728748 0.000159
    CHANNELS 3 Yrotation Xrotation Zrotation
    JOINT RightToe
    {
     OFFSET 0.000000 -6.515296 14.732841
     CHANNELS 3 Yrotation Xrotation Zrotation
     End Site
     {
      OFFSET 0.000000 -1.502839 6.412115
     }
    }
   }
  }
 }
 JOINT LeftHip
 {
  OFFSET 8.003235 -0.001175 -0.000120
  CHANNELS 3 Yrotation Xrotation Zrotation
  JOINT LeftKnee
  {
   OFFSET 0.000000 -41.759727 0.000113
   CHANNELS 3 Yrotation Xrotation Zrotation
   JOINT LeftAnkle
   {
    OFFSET 0.000000 -40.728748 0.000159
    CHANNELS 3 Yrotation Xrotation Zrotation
    JOINT LeftToe
    {
     OFFSET 0.000000 -6.515296 14.732841
     CHANNELS 3 Yrotation Xrotation Zrotation
     End Site
     {
      OFFSET 0.000000 -1.502839 6.412115
     }
    }
   }
  }
 }
}
MOTION
Frames: 5
Frame Time: 0.016667
5.854360 97.178752 2.804398 -36.009100 -13.763378 8.580266 -4.378039 20.025617 -8.492517 0.795786 6.119906 -1.044769 0.795786 6.119906 -1.044769 0.606770 4.588596 -0.790827 0.277906 15.555024 1.733265 -0.123645 -7.286191 3.132833 -2.863469 -17.546185 0.100735 5.999481 10.864038 -30.293302 62.348014 -22.836336 -60.172931 3.266718 0.727530 -14.467224 3.078705 -23.090910 9.013791 -7.426630 5.688584 13.986497 -61.026188 -11.212109 54.712512 18.906795 -4.547571 0.821335 4.904339 8.835696 -13.875948 6.058210 14.245836 -10.558261 1.770246 17.663222 -1.595698 -3.668594 -17.946088 4.573628 -0.381252 7.729326 2.587041 -3.490498 27.923994 -5.991695 0.707786 0.792869 -16.363689 2.678114 -9.717202 5.093607
5.992022 98.481387 2.496013 -36.486977 -10.625663 7.020179 -3.115303 19.158964 -7.649247 0.734974 6.178613 -1.398628 0.734974 6.178613 -1.398628 0.564887 4.632317 -1.055410 0.839270 14.576233 2.462390 0.626396 -9.105299 4.301598 -2.017256 -16.616724 3.666397 4.524240 8.199405 -26.739672 61.359160 -22.542879 -59.578336 3.082424 0.556615 -14.352783 4.680235 -21.921887 8.576309 -8.589571 4.189328 10.820420 -58.007901 -12.183010 54.964652 18.476893 -5.057787 0.108831 4.466216 5.798260 -12.804958 6.317324 12.699030 -9.645342 0.210836 18.445674 -3.491071 -2.836332 -16.022208 3.819936 3.953155 4.333195 5.378195 -1.657107 27.142143 -5.485701 -0.207159 1.346256 -15.883305 1.888490 -7.191717 4.169293
6.182093 99.607740 2.065993 -36.641843 -7.565704 5.387064 -0.859278 18.461089 -7.350242 1.208897 6.379893 -1.975718 1.208897 6.379893 -1.975718 0.926446 4.781099 -1.492926 0.732042 13.483756 3.999835 -0.226165 -11.082903 7.272844 -3.110643 -14.358023 9.653409 2.116446 3.032904 -22.921969 61.015783 -20.916745 -58.314167 2.780582 0.006160 -14.787722 2.306376 -20.838277 9.710464 -8.186976 1.572112 8.391045 -57.641874 -12.082296 54.307065 18.422002 -5.509154 0.439447 3.604991 2.465375 -11.268137 6.264126 12.540674 -8.807031 -1.269309 15.858838 -5.247644 -1.556324 -12.197528 2.816323 8.635512 0.453395 7.323843 2.381823 27.151895 -3.356083 -3.004412 0.827326 -15.137803 1.045181 -4.317798 3.238780
6.439603 100.575202 1.569029 -36.830536 -4.469884 3.993544 0.890094 18.186151 -7.148881 1.475099 7.198058 -2.367328 1.475099 7.198058 -2.367328 1.132897 5.392973 -1.790620 0.656812 11.649744 5.092315 -0.946645 -14.424413 9.478379 -1.837705 -13.440727 13.898449 -1.772768 -4.490272 -19.161298 62.117751 -19.935793 -56.729956 2.502020 -0.206676 -14.920308 -1.960683 -21.304262 10.361852 -4.897655 -1.024244 4.899606 -58.521689 -10.757768 54.850239 18.231849 -6.032806 0.421993 2.933554 -0.923994 -9.570930 5.111402 12.799048 -8.250678 -1.052087 11.891188 -6.537774 -0.394765 -7.854482 1.778280 11.540562 -3.169807 8.473070 7.201058 26.791848 -1.691295 -5.161705 -0.117336 -14.321713 0.273738 -1.474383 2.521402
6.555961 101.393282 1.261225 -37.688672 -3.158842 2.405948 2.074911 18.155466 -5.134468 1.262773 7.867768 -2.058952 1.262773 7.867768 -2.058952 0.972253 5.896690 -1.558133 0.827780 10.553003 4.586693 -0.478213 -16.497790 8.496009 3.633131 -10.342661 12.571596 -6.169203 -11.792654 -13.823917 63.105941 -19.402369 -56.113943 2.237405 -0.435287 -14.969024 -6.696584 -18.475374 7.910087 3.071509 -5.882292 2.571967 -60.731155 -10.016345 53.126580 18.096300 -6.403233 0.518984 2.802789 -2.223970 -7.396471 3.752700 12.743438 -7.817023 0.631269 8.592442 -6.792265 -0.129269 -4.300548 0.396219 13.122451 -5.040461 8.469823 9.554646 27.174450 0.478587 -4.860667 -1.508035 -14.683016 0.256859 0.022291 2.353885
